<svg id="Layer_1" data-name="Layer 1" xmlns="http://www.w3.org/2000/svg" viewBox="0 0 300 300"><defs><style>.cls-1{fill:#131313;}</style></defs><path class="cls-1" d="M229.81,150V274c0,13.23-7.59,20.78-20.89,20.78H91.4c-13.06,0-20.68-7.63-20.68-20.69V25.22c0-13.06,7.62-20.63,20.74-20.63H209.28c12.88,0,20.53,7.65,20.53,20.55Q229.83,87.56,229.81,150ZM118.51,14H91.39c-7.89,0-11.31,3.46-11.31,11.44V274c0,8,3.43,11.44,11.31,11.44H208.64c8.58,0,11.81-3.23,11.81-11.82V25.89c0-.78,0-1.56,0-2.34-.14-5.61-4-9.53-9.64-9.58-6.92-.07-13.84,0-20.76,0h-8.14c-1.43,5-2.81,9.8-4.12,14.58-.78,2.86-2.57,4.16-5.53,4.16-14.81,0-29.62,0-44.44,0-3.52,0-4.8-1-5.71-4.57C120.91,23.47,119.75,18.85,118.51,14Zm12,9.36c12.62,0,25.07,0,37.52,0a2.16,2.16,0,0,0,1.69-1.05c.87-2.62,1.55-5.31,2.35-8.14H128.25C129,17.22,129.77,20.19,130.55,23.31Z"/><path class="cls-1" d="M127.49,125.79a35.65,35.65,0,0,1-2.39,4.29c-4.51,5.75-9,11.5-13.71,17.1-1.51,1.81-1.74,2.95-.1,4.89,4.72,5.57,9.2,11.35,13.74,17.07,2.36,3,2.39,5.58.15,7.47s-5,1.38-7.48-1.66q-8.51-10.6-17-21.23c-2.64-3.31-2.66-4.76-.08-8q8.75-11,17.52-21.91c1.47-1.84,3.41-3,5.59-1.8C125.21,122.79,126.19,124.43,127.49,125.79Z"/><path class="cls-1" d="M178.3,178.5c-1.6-1.28-3.44-2-3.87-3.29a6.43,6.43,0,0,1,.45-5.06c2.68-3.94,5.84-7.54,8.82-11.27,1.94-2.44,3.8-5,5.88-7.27,1.33-1.49,1.13-2.49-.07-4-4.76-5.79-9.41-11.68-14.08-17.56-2.34-2.95-2.31-5.58,0-7.44s4.95-1.31,7.28,1.59q8.68,10.81,17.34,21.68c2.34,2.95,2.32,4.56-.06,7.55-5.76,7.24-11.51,14.5-17.38,21.65C181.58,176.39,180,177.2,178.3,178.5Z"/><path class="cls-1" d="M169.51,125.6a41.15,41.15,0,0,1-1.72,3.92q-13.47,22.54-27,45.07c-1.89,3.14-4.54,4-7,2.4s-2.82-4.14-1-7.17q13.56-22.66,27.16-45.32c1.28-2.14,3.15-3.62,5.52-2.64C167,122.54,168.2,124.35,169.51,125.6Z"/><path class="cls-1" d="M110.2,276c-5.07,0-10.14,0-15.2,0-3.45,0-5.54-1.83-5.54-4.67s2.07-4.66,5.53-4.67q15.49,0,31,0c3.44,0,5.54,1.83,5.54,4.67S129.42,276,126,276C120.73,276.06,115.46,276,110.2,276Z"/><path class="cls-1" d="M143.09,276a23.08,23.08,0,0,1-2.63,0,4.6,4.6,0,0,1-4.19-4.78,4.44,4.44,0,0,1,4.21-4.46,30.3,30.3,0,0,1,4.67-.05c3,.09,5,1.88,5.09,4.52s-2,4.68-5.1,4.81c-.68,0-1.37,0-2,0Z"/></svg>