<svg id="Layer_1" data-name="Layer 1" xmlns="http://www.w3.org/2000/svg" viewBox="0 0 300 300"><defs><style>.cls-1{fill:#131313;}</style></defs><path class="cls-1" d="M300,40.35c-1.65,1.57-3.07,3.53-5,4.64-9.51,5.48-19.14,10.74-28.73,16.07a18.61,18.61,0,0,1-2.61,1.29,5.77,5.77,0,0,1-7.09-2.45,5.37,5.37,0,0,1,1.65-7.47c11.19-6.44,22.46-12.75,33.84-18.84,3.05-1.63,5.64,0,7.93,3.84Z"/><path class="cls-1" d="M118.94,196.21c2.35,4.09,4.55,7.86,6.71,11.65,2.62,4.62,1.85,7.55-2.69,10.2s-9.08,5.25-13.81,8c4.52,7.84,9.1,15.42,13.3,23.2,2.61,4.83,5.36,9.79,6.77,15,2.42,9-2.72,19.2-11.09,24.05s-19.84,3.95-26.7-2.48a35.2,35.2,0,0,1-6.14-7.71q-13.77-23.4-27.2-47c-1-1.76-1.79-2.18-3.83-1.5a40.81,40.81,0,0,1-49.9-21.73,40.45,40.45,0,0,1,15.25-51.51c16-9.82,32.47-18.89,48.69-28.37a15,15,0,0,0,4.11-3.58Q109.57,77.26,146.58,30c4.67-6,10.23-9.54,18-8.39,5.87.86,10.11,4.23,13.05,9.34,6.49,11.31,13.06,22.58,19.49,33.93,1,1.84,2.1,2.64,4.3,2.45,6.21-.52,12.45-.75,18.66-1.2,3.32-.25,5.55,1.11,7.16,4,3.39,6,6.8,12,10.37,18,1.85,3.07,1.67,5.77-.32,8.67-3.37,4.89-6.49,10-9.9,14.81-1.34,1.91-1.47,3.32-.24,5.39,6.06,10.22,12.05,20.47,17.83,30.84,6.05,10.84,0,23.9-11.84,26.1q-11.91,2.22-23.8,4.55-43.83,8.56-87.66,17.18C120.91,195.68,120.16,195.91,118.94,196.21ZM147,48.13c-.38.62-.54,1-.78,1.29Q114.57,89.79,82.85,130.1c-1.09,1.39-.79,2.28,0,3.58q14.35,24.76,28.6,49.59c.91,1.59,1.7,2.08,3.63,1.69,23.47-4.68,47-9.23,70.47-13.82,9.63-1.89,19.26-3.81,29.19-5.78ZM101.66,189.71,72.47,139.17c-12.5,7.21-24.73,14.24-36.93,21.31-3.62,2.09-7.31,4.1-10.75,6.45A29,29,0,0,0,13.73,199.7c6,18,26.06,25.61,42.79,16.15,14.56-8.24,29-16.7,43.48-25.07C100.5,190.49,101,190.16,101.66,189.71ZM154.94,38.35c.58,1,1.09,2,1.62,2.89l25.4,44q21.67,37.56,43.36,75.11c.48.83,1.2,2.33,1.61,2.26,2.32-.37,4.83-.7,6.81-1.85s2.44-3.66,1.63-6a16.36,16.36,0,0,0-1.45-2.86q-33-57.15-66-114.31a22.55,22.55,0,0,0-1.22-2c-2.47-3.34-6.46-3.57-9.23-.49C156.57,36.13,155.8,37.25,154.94,38.35Zm-87.82,185c.39.74.64,1.25.92,1.74q13.78,23.88,27.58,47.76a20.59,20.59,0,0,0,1.77,2.67,11.65,11.65,0,0,0,18.61-.75c3-4.44,2.61-8.93,0-13.45q-13.84-23.85-27.59-47.75c-.33-.57-.72-1.11-1.19-1.83ZM205.22,78.77l13.9,24.06c2.38-3.6,4.51-6.72,6.51-9.92a2.41,2.41,0,0,0,0-2C223.5,87,221.25,83.08,219,79.24c-.31-.52-1-1.22-1.45-1.2C213.57,78.18,209.63,78.48,205.22,78.77ZM103.3,215.89,113.4,210l-5.85-10.12-10.09,5.87C99.47,209.28,101.31,212.45,103.3,215.89Z"/><path class="cls-1" d="M265.16,88.28l6.1,1.63c5.25,1.4,10.51,2.75,15.74,4.22,4,1.12,5.81,3.93,4.94,7.29s-3.89,5-7.83,4c-7.14-1.84-14.27-3.71-21.37-5.72-3.51-1-5.24-3.73-4.66-6.72S261,88.16,265.16,88.28Z"/><path class="cls-1" d="M225.07,35.46c.19-.81.51-2.33.91-3.82,1.65-6.19,3.26-12.39,5-18.54,1.06-3.71,4.08-5.55,7.21-4.66,3.28.93,4.94,3.83,4,7.59-1.86,7.33-3.79,14.65-5.89,21.92-1,3.46-3.76,5-6.91,4.27C226.6,41.6,224.92,39.27,225.07,35.46Z"/><path class="cls-1" d="M42.89,208.32c-7.6-.23-12.58-2.81-16-8.1-1.93-2.93-1.49-6.09,1-8.09s5.68-1.6,8.06,1c4,4.28,5.48,4.5,10.59,1.56,2.45-1.41,4.86-2.88,7.34-4.22,3.58-1.93,7-1.18,8.67,1.8s.65,6.2-2.69,8.2c-3.58,2.15-7.2,4.28-11,6.07A33,33,0,0,1,42.89,208.32Z"/><path class="cls-1" d="M78,177.69a5.69,5.69,0,1,1-6,5.47A5.67,5.67,0,0,1,78,177.69Z"/></svg>