<svg id="Layer_1" data-name="Layer 1" xmlns="http://www.w3.org/2000/svg" viewBox="0 0 300 300"><defs><style>.cls-1{fill:#131313;}</style></defs><path class="cls-1" d="M140.94,0h18.71a17.91,17.91,0,0,0,2.24.48,146.67,146.67,0,0,1,70.25,23.88c1.86,1.21,3.69,2.47,5.46,3.65,11.29-6.74,22.57-6,31.16,2,8.85,8.19,10,19.11,3.33,32.57.24.37.48.79.76,1.19a146,146,0,0,1,25,60.75c.89,5.45,1.45,11,2.17,16.44v18.12c-.17.86-.38,1.7-.51,2.56-1.19,7.59-1.84,15.3-3.62,22.75A149.51,149.51,0,0,1,86.35,285c-8.16-3.82-15.79-8.77-23.85-13.29a24.33,24.33,0,0,1-30.83-2.48C22,259.8,21.9,246.93,28.53,236.9c-.52-.77-1-1.59-1.59-2.39a149.58,149.58,0,0,1-1.76-167c2.5-3.79,5.76-4.8,8.83-2.75,2.91,2,3.25,5.31,1.09,9q-4.58,7.8-9,15.72c-1.09,2-1.87,4.11-2.92,6.45,18.94,0,37.35,0,55.76-.08A3.26,3.26,0,0,0,81.29,94c3.52-9.11,9.91-14.75,19.57-16.45A2.71,2.71,0,0,0,103.41,75c.76-3.82,1.52-7.64,2.47-11.41,4.33-17.25,9.69-34.08,20.14-48.82.12-.17,0-.47.07-.79a7.68,7.68,0,0,0-1,0c-.67.1-1.34.23-2,.36a137.05,137.05,0,0,0-51.48,21.9c-3.55,2.45-7,2.05-9-.91S61.51,29.11,65,26.67A146.18,146.18,0,0,1,124.51,2.29C130,1.36,135.46.75,140.94,0Zm79.61,191.72h61.21a138.55,138.55,0,0,0,.09-83.94H202.18c.08,1.54.1,2.9.22,4.25a387.4,387.4,0,0,1,1.1,57.81c-.19,3.15.26,5.25,3.68,6.35a11,11,0,0,1,4.93,3.53C215,183.4,217.54,187.38,220.55,191.72Zm-122.08,0c-.29-3.68-.74-7.07-.79-10.46q-.39-26.72-.55-53.44c0-2-.49-2.87-2.32-3.65a22.86,22.86,0,0,1-13.14-14.09c-.73-2.17-1.81-2.5-3.76-2.49-17.15.06-34.29,0-51.44,0H18.81a139.29,139.29,0,0,0-.07,84.1ZM190.39,108a4.42,4.42,0,0,0-.93-.32c-19.77,0-39.54,0-59.3,0-.75,0-1.85,1.14-2.18,2-2.13,5.56-5.49,10.12-10.7,13.06a88.75,88.75,0,0,1-8.38,3.68,401,401,0,0,0,1.42,65.25h61.3c2.84-9.21,8.66-15.29,17.87-17.74,2-.54,2.37-1.39,2.36-3.17,0-14.4.11-28.81-.1-43.21C191.66,121,190.86,114.38,190.39,108Zm-1.38-12c-1.06-6.14-1.93-12-3.09-17.8-3.22-16.17-7.4-32-15-46.82-3-5.92-6.52-11.56-11.74-15.85-6.07-5-11.94-5.32-17.61,0A60.3,60.3,0,0,0,131,28.88c-8.71,15.11-12.79,31.88-16.2,48.8-.14.7.83,2,1.61,2.46,5.34,3.13,9.32,7.44,11.25,13.31.71,2.18,1.8,2.5,3.77,2.49,18.12-.06,36.24,0,54.37,0ZM111.67,203.6c.62,3.93,1.14,7.58,1.79,11.22,3,17.18,7.1,34.07,14.54,50,3.27,7,7,13.72,13,18.85,6.29,5.41,12.3,5.74,18.26.08a58.78,58.78,0,0,0,10.34-13.24c8.64-15,12.72-31.67,16.15-48.48a3.29,3.29,0,0,0-1.27-2.4c-2.36-2-5.29-3.47-7.21-5.79-2.48-3-4.19-6.63-6.36-10.21Zm107.8,0c-3.31,10.14-9.83,16.37-20.21,18.42-.84.17-1.79,1.58-2,2.57-1.34,5.28-2.31,10.65-3.73,15.91-4.13,15.37-9.23,30.35-18.55,43.53a14.12,14.12,0,0,0-.78,1.62,138.51,138.51,0,0,0,103.16-82ZM278,95.81l-14.56-26c-11,4.57-20.63,3.41-28.65-4.54s-9.19-17.81-5-28.15c-12.52-10.36-46.57-24.31-55.31-22.76C190.92,39,196.28,67.26,200.81,95.81ZM70.63,262.4a136.29,136.29,0,0,0,55.82,23.24c-16.77-25.09-22.14-53.41-26.66-81.94H22.61c5,9,9.75,17.4,14.49,25.84,11.25-4.55,21-3.34,29.09,5C73.86,242.51,74.9,252,70.63,262.4ZM252.09,35.09A12.86,12.86,0,1,0,264.9,47.92,12.9,12.9,0,0,0,252.09,35.09ZM104.79,88.9a12.86,12.86,0,1,0,12.74,12.89A12.91,12.91,0,0,0,104.79,88.9ZM61.39,251.64a12.86,12.86,0,1,0-13,12.68A12.91,12.91,0,0,0,61.39,251.64Zm146.92-53.92a12.77,12.77,0,0,0-12.67-12.92,12.86,12.86,0,1,0-.12,25.72A12.78,12.78,0,0,0,208.31,197.72Z"/><path class="cls-1" d="M47.41,43.32A5.83,5.83,0,1,1,41.56,49,6,6,0,0,1,47.41,43.32Z"/></svg>