<svg id="Layer_1" data-name="Layer 1" xmlns="http://www.w3.org/2000/svg" viewBox="0 0 300 300"><defs><style>.cls-1{fill:#131313;}</style></defs><path class="cls-1" d="M0,34.51c.93-3.15,1.65-6.39,2.84-9.44a28.35,28.35,0,0,1,27-18.15q108.93.31,217.87-.06c18.14-.09,28.74,14.22,30.09,27.81.24,2.42.31,4.87.31,7.3q0,59.82.09,119.63a6.75,6.75,0,0,0,1.69,4.58c7,6.24,6.47,15.9.35,21.1a2.48,2.48,0,0,0-.43.66c1.24,3,2.35,6.05,3.74,8.93a3.54,3.54,0,0,0,2.46,1.7c8.7.82,13.4,5.83,13.43,14.52,0,3.12.05,6.24,0,9.36a13.08,13.08,0,0,1-12.88,13.19c-2,.06-3.08.6-3.44,2.56a6.22,6.22,0,0,1-.69,1.92c-2.14,3.69-2.81,6.73.61,10.66,3.62,4.18,2.53,10.86-1.28,15.09a120.47,120.47,0,0,1-8.66,8.7,12.82,12.82,0,0,1-17.75-.18c-1.56-1.49-2.79-1.74-4.47-.61a.7.7,0,0,1-.27.11c-4.84,1.44-8.37,3.37-8.92,9.6-.47,5.3-6.33,8.82-11.91,9-3.6.09-7.21.06-10.81,0-7.33-.09-12.83-5.08-13.28-12.44-.15-2.51-1.15-3.32-3.28-4.21-4.35-1.81-7.9-3.72-12.56.5-3.86,3.5-10.47,2.06-14.53-1.63a122.69,122.69,0,0,1-8.7-8.67,12.76,12.76,0,0,1,.22-17.74c1.49-1.58,1.67-2.74.58-4.49a22.78,22.78,0,0,1-1.64-3.74c-1.72-4.33-1.71-4.33-6.51-4.33q-21.93,0-43.86,0c-3.73,0-6.16-1.85-6.64-4.87-.61-3.91,2-6.84,6.34-6.85,10-.05,20.08,0,30.12,0h3.5c0-3.77,0-7.24,0-10.72,0-8.9,4.72-13.87,13.6-14.68a3.58,3.58,0,0,0,2.43-1.76c1.33-2.8,2.37-5.74,3.6-8.79-.62-.68-1.35-1.44-2-2.25a13.06,13.06,0,0,1,.29-17.59c2.52-2.71,5.17-5.31,7.84-7.88,5.4-5.18,12.91-5.35,18.41-.26,1.49,1.38,2.64,1.71,4.26.53a5.45,5.45,0,0,1,1.85-.84c4.25-1,6.69-3,7.08-8,.4-5.25,5.4-9.14,10.72-9.6a99.32,99.32,0,0,1,12.56-.19c7.52.3,12.51,5.16,13,12.7.14,2,.71,2.89,2.62,3.47,2.31.69,4.46,1.94,6.75,2.72a3.19,3.19,0,0,0,2.7-.3,14.57,14.57,0,0,1,11.62-4.26V97H11.76v3.2c0,34-.07,68.05.09,102.07a30.72,30.72,0,0,0,2.08,11.07c2.82,7,8.12,10.83,16.1,10.68,10.32-.2,20.66-.06,31-.05,4.48,0,7.15,2.26,7.11,5.91s-2.74,5.83-7.24,5.84c-10,0-20.09-.37-30.11.08-17.92.82-28-12.9-30.22-25.65a16.45,16.45,0,0,0-.56-1.9ZM11.91,84.74H266.29c0-2.6,0-5,0-7.43,0-13.36.19-26.72-.15-40.07-.29-11.61-7.73-18.48-19.2-18.48H218.28q-94.3,0-188.62,0c-5.5,0-9.88,1.87-13.21,6.16a23.33,23.33,0,0,0-4.69,14.76q0,21.21,0,42.41C11.76,82.91,11.85,83.76,11.91,84.74ZM273.35,257.13c-.5-.64-.87-1.2-1.32-1.68-1.08-1.13-2.21-2.2-3.3-3.32-2.85-2.93-2.92-4.95-1.12-8.67a112.44,112.44,0,0,0,5.55-13.11C275,225,276,224,281.62,224c6.79,0,6.07.51,6.08-6.17,0-7.11,0-7.11-7.16-7.32-4.12-.12-5.64-1.59-7.05-5.63A118.21,118.21,0,0,0,268,191.41c-2.26-4.55-2.26-6.28,1.27-9.84,4.57-4.62,4.57-4.62,0-9.19-4.88-4.88-4.88-4.88-9.81-.1-3.2,3.12-5.2,3.18-9.14,1.29a132.52,132.52,0,0,0-14-5.75c-4.22-1.46-5.65-3-5.7-7.59-.08-6.53-.08-6.53-6.48-6.53-7,0-7,0-7,6.87-.05,4.45-1.42,5.9-5.59,7.33a107.1,107.1,0,0,0-13.16,5.43c-4.67,2.35-6.38,2.34-10.07-1.29-5.14-5-3.84-5-9,.09-4.93,4.88-4.91,4.9-.15,9.8,3.26,3.35,3.3,5.13,1.26,9.38a124.74,124.74,0,0,0-5.52,13.44c-1.44,4.21-3,5.67-7.58,5.73-6.68.09-6.71.09-6.68,6.62.05,7.91-.88,6.79,6.81,6.87,4.62,0,6,1.37,7.49,5.73a100,100,0,0,0,5.29,12.91c2.42,4.82,2.39,6.5-1.39,10.29-5.07,5.08-4.88,3.74,0,8.75s5,5.05,10.2.07c3-2.87,5-3,8.68-1.18a110.79,110.79,0,0,0,13.1,5.58c5.47,1.82,6.55,2.89,6.57,8.68,0,6.64-.62,5.92,5.95,5.94,7.45,0,7.45,0,7.57-7.32,0-.29,0-.58,0-.87.07-3,1.67-4.75,4.43-5.82,5.33-2.07,10.63-4.21,15.84-6.55,2.87-1.29,5.26-1.07,7.49,1.06q2,1.92,3.94,3.92c1.06,1.11,2,1.32,3.21.11,2.09-2.18,4.27-4.27,6.37-6.44A11.42,11.42,0,0,0,273.35,257.13Z"/><path class="cls-1" d="M131.91,160.34,118.82,145.6a19.88,19.88,0,0,1-1.68-2,5.85,5.85,0,0,1,.93-7.68c2.19-1.95,5.66-2.19,7.69,0,6,6.49,11.93,13.08,17.65,19.83a7.28,7.28,0,0,1-.33,9.7c-5.45,6.35-11,12.58-16.66,18.77a5.86,5.86,0,1,1-8.73-7.82c3.54-4.14,7.22-8.15,10.85-12.22Z"/><path class="cls-1" d="M46.43,160.37c4.57,5.13,8.92,10,13.23,14.89a12.12,12.12,0,0,1,2.16,3.09,5.71,5.71,0,0,1-2,6.77c-2.13,1.59-5.4,1.68-7.26-.33-6.07-6.6-12.07-13.26-17.83-20.12-2.29-2.72-1.9-6.65.54-9.47q8.22-9.51,16.71-18.78a5.74,5.74,0,0,1,8.36-.43,5.91,5.91,0,0,1,.23,8.42c-3.62,4.2-7.38,8.3-11.07,12.45C48.54,157.94,47.59,159,46.43,160.37Z"/><path class="cls-1" d="M100.84,136.71c-1.2,5.08-2.52,10.77-3.87,16.45q-3.75,15.76-7.54,31.52c-.14.57-.29,1.13-.48,1.69a5.87,5.87,0,0,1-7,4.18,5.72,5.72,0,0,1-4.28-7c1.5-6.84,3.19-13.65,4.81-20.46q3.26-13.78,6.54-27.56c.88-3.66,3.12-5.69,6.1-5.63C98.37,130,100.93,132.74,100.84,136.71Z"/><path class="cls-1" d="M88.54,224a5.78,5.78,0,0,1,5.88,5.93,5.89,5.89,0,0,1-5.78,5.8,6,6,0,0,1-6.07-5.85A5.89,5.89,0,0,1,88.54,224Z"/><path class="cls-1" d="M201.63,71.9c-8.87,0-17.74.15-26.6,0a19.73,19.73,0,0,1-4.85-38.77,21.2,21.2,0,0,1,5.48-.77c17.25-.06,34.5-.14,51.74,0,8.44.07,14.83,4,18.32,11.76,3.32,7.42,2.21,14.51-2.94,20.78-3.94,4.81-9.25,7-15.42,7-8.58,0-17.15,0-25.73,0Zm-.14-27.76c-8.57,0-17.15-.09-25.72,0-4.92.07-8.36,3.53-8.34,8s3.48,7.94,8.38,8c17.15.09,34.29,0,51.44,0a8,8,0,0,0,7.61-4.51c2.72-5.45-1.14-11.34-7.65-11.44C218.64,44,210.06,44.13,201.49,44.14Z"/><path class="cls-1" d="M125.77,52.08a19.78,19.78,0,1,1-19.64-19.79A19.84,19.84,0,0,1,125.77,52.08ZM114,52.21a8,8,0,0,0-8-8,7.88,7.88,0,0,0-7.94,7.7,8,8,0,0,0,7.74,8.23A8.13,8.13,0,0,0,114,52.21Z"/><path class="cls-1" d="M74.46,52.15A19.73,19.73,0,1,1,54.63,32.29,19.75,19.75,0,0,1,74.46,52.15Zm-19.81-8a8,8,0,0,0-7.87,8.1,7.94,7.94,0,0,0,15.87-.15A7.92,7.92,0,0,0,54.65,44.16Z"/><path class="cls-1" d="M224.08,181.2a36,36,0,1,1-36,36.07A36.09,36.09,0,0,1,224.08,181.2Zm-24.14,35.87A24.21,24.21,0,1,0,224.14,193,24.23,24.23,0,0,0,199.94,217.07Z"/></svg>