<svg id="Layer_1" data-name="Layer 1" xmlns="http://www.w3.org/2000/svg" viewBox="0 0 300 300"><defs><style>.cls-1{fill:#131313;}</style></defs><path class="cls-1" d="M300,271.35c-1.41,5.36-3,10.63-6.48,15.11-6.39,8.19-14.74,12.61-25.09,12.9-7.89.22-15.79.1-23.69,0-4,0-6.68-2.46-6.67-5.85s2.68-5.78,6.71-5.81c7.12-.05,14.23,0,21.35,0,13.46,0,22.15-8.69,22.16-22.13q0-32,0-64c0-13.64-8.57-22.25-22.27-22.3q-29.53-.09-59.08,0a12.47,12.47,0,0,1-8.8-3.07c-3.58-3.11-7.38-6-11.63-9.36,0,2.3,0,4,0,5.7-.11,4.27-2.17,6.45-6.46,6.65-3.31.15-6.64-.07-9.94.19-12,.95-19.79,9.32-19.83,21.37q-.1,30.27,0,60.53c0,3.68-.06,7.49.8,11,2.28,9.34,10.27,15.26,20.26,15.38,8.67.11,17.35,0,26,.05,4.77,0,7.6,3.57,6.28,7.59-.79,2.38-2.54,3.94-4.93,3.94-10.9,0-21.91.7-32.69-.51-16.08-1.8-27.36-15.44-27.45-31.68-.11-21.15,0-42.3,0-63.45v-3.91c-.78,1.08-1.17,1.55-1.48,2.06-17.52,29.41-51.56,42.75-84.53,33.12s-55.61-43.34-51.5-77.72c3.41-28.51,18.74-48.46,44.89-60.11,2.07-.92,2.6-2,2.59-4.11-.08-21.15.35-42.31-.19-63.44C48,14.77,54.47,3.17,70.12,0H230.39c2.57.84,5.3,1.36,7.69,2.56,9.66,4.89,14,13.05,14,23.72q0,68.79,0,137.59v3.68c5.1,0,9.86,0,14.61,0,11.63,0,21.21,4.43,27.56,14.2,2.73,4.2,3.91,9.41,5.79,14.16ZM240.24,54H60.34V92.51c1-.07,1.91-.07,2.77-.19,19.74-2.76,37.68,1.7,54,13.18a7.94,7.94,0,0,0,4.27,1.33c10.14.11,20.27.09,30.41,0,3,0,5.45.7,6.66,3.67s-.12,5.23-2.22,7.29c-4.65,4.58-9.18,9.29-13.91,13.79-1.59,1.51-1.82,2.69-1,4.73a71.47,71.47,0,0,1,4.88,39.74c-.13.88-.15,1.77-.27,3.28,7.89-9.06,17.54-12.32,28.9-11.8,0-4,0-7.65,0-11.33-.06-2.81.48-5.3,3.21-6.67s5.22-.38,7.51,1.47c6.13,5,12.26,10,18.52,14.75a8.55,8.55,0,0,0,4.7,1.68c9.55.15,19.1.08,28.66.06.92,0,1.84-.12,2.83-.19Zm-101.8,65.39-.47-.81c-6.22,0-12.45-.07-18.68,0a12.09,12.09,0,0,1-7.82-2.59c-23.26-17.47-53-17.19-76.06.63C13.52,133.57,5.93,165.6,17.92,190.45,31.52,218.62,60.67,232,91,223.91c23.55-6.24,42.48-29.38,44.17-53.7a64.31,64.31,0,0,0-6.57-33.64c-2.09-4.24-1.69-6.07,1.64-9.36C133,124.56,135.71,122,138.44,119.39ZM240.34,42V26.85c0-10.26-4.93-15.15-15.26-15.15H75.43c-1,0-2,0-2.93,0-6,.34-11.27,4.31-11.86,10.19-.66,6.6-.15,13.33-.15,20.08Z"/><path class="cls-1" d="M243.2,235.75h-8.07c0,2.95,0,6.32,0,9.69-.06,4.14-2.25,6.63-5.75,6.65s-5.86-2.5-5.9-6.56c-.09-8.08-.05-16.16,0-24.23,0-2.75,1.07-5,3.75-6.05s4.95-.13,6.85,1.83c1.61,1.66,3.13,3.4,5,5.47,2-2.13,3.58-3.83,5.21-5.48,1.91-1.95,4.15-2.92,6.85-1.82s3.73,3.31,3.75,6.05c0,8.08.08,16.15,0,24.23,0,4.07-2.46,6.59-5.91,6.56s-5.68-2.51-5.74-6.66C243.16,242.07,243.2,238.7,243.2,235.75Z"/><path class="cls-1" d="M169,227.41h7c0-1.89,0-3.79,0-5.7.08-4.23,2.44-7,5.92-6.89s5.73,2.71,5.76,6.75q.06,12,0,24c0,4.07-2.37,6.59-5.88,6.56s-5.69-2.54-5.79-6.67c0-1.93,0-3.85,0-6h-7c0,2,0,4,0,6-.09,4.12-2.31,6.61-5.82,6.61s-5.82-2.54-5.85-6.62q-.11-12,0-24c0-4,2.45-6.68,5.83-6.7s5.75,2.65,5.84,6.66C169,223.4,169,225.33,169,227.41Z"/><path class="cls-1" d="M211.68,226.56c0,5.56,0,10.9,0,16.24,0,1.07,0,2.14,0,3.21-.2,3.68-2.48,6.05-5.77,6.08s-5.75-2.31-5.85-6c-.15-5.25,0-10.51,0-15.77,0-1.16,0-2.32,0-3.65-.88-.13-1.62-.23-2.35-.35a5.83,5.83,0,0,1-5.21-5.42,5.41,5.41,0,0,1,4.93-5.86,150.88,150.88,0,0,1,16.61-.11,5.56,5.56,0,0,1,5.29,5.88c-.12,3-2.27,5.14-5.69,5.56C213.08,226.44,212.59,226.47,211.68,226.56Z"/><path class="cls-1" d="M272.8,240.24a60.66,60.66,0,0,1,6.31.56A5.67,5.67,0,0,1,278.6,252a116.6,116.6,0,0,1-12.26,0c-3.38-.2-5.18-2.68-5.22-6.86-.06-7.79,0-15.58,0-23.37a10.11,10.11,0,0,1,.11-1.45c.42-3.26,2.78-5.53,5.72-5.54a5.69,5.69,0,0,1,5.69,5.52c.24,5.35.14,10.71.17,16.06C272.81,237.61,272.8,238.86,272.8,240.24Z"/><path class="cls-1" d="M225.08,293.44a5.8,5.8,0,1,1-5.94-5.67A6,6,0,0,1,225.08,293.44Z"/><path class="cls-1" d="M204.1,84.22c-3.7,0-7.4.06-11.1,0-3.89-.07-6.4-2.33-6.48-5.67s2.5-5.94,6.5-6q11.23-.12,22.48,0c4,0,6.65,2.63,6.53,6s-2.68,5.59-6.54,5.66S207.9,84.22,204.1,84.22Z"/><path class="cls-1" d="M156.3,84.22c-3.7,0-7.41,0-11.11,0-4-.07-6.65-2.5-6.58-5.91s2.65-5.7,6.49-5.74q11.25-.12,22.51,0c4,0,6.65,2.56,6.58,5.94s-2.71,5.67-6.78,5.72C163.71,84.26,160,84.22,156.3,84.22Z"/><path class="cls-1" d="M177.52,140.37c-3.51,0-7,0-10.51,0-3.88-.07-6.43-2.32-6.54-5.65s2.49-6,6.48-6q10.65-.13,21.31,0c3.79,0,6.38,2.52,6.41,5.79s-2.57,5.76-6.35,5.85c-3.6.09-7.2,0-10.8,0Z"/><path class="cls-1" d="M185.35,112.29c-3,0-6,.07-9,0-3.89-.11-6.29-2.41-6.28-5.84s2.44-5.75,6.33-5.8q9.19-.15,18.4,0c3.78.06,6.37,2.57,6.35,5.85s-2.59,5.69-6.41,5.79C191.58,112.35,188.46,112.29,185.35,112.29Z"/><path class="cls-1" d="M213.19,128.54a32.12,32.12,0,0,1,4.48.46,5.73,5.73,0,0,1,4.36,5.52c0,2.53-1.76,5.12-4.38,5.45a37.38,37.38,0,0,1-9,0,5.41,5.41,0,0,1-4.5-5.36,5.75,5.75,0,0,1,4.53-5.69A34.11,34.11,0,0,1,213.19,128.54Z"/><path class="cls-1" d="M222,106.51a6,6,0,0,1-5.87,5.74,5.8,5.8,0,0,1,.1-11.6A6.06,6.06,0,0,1,222,106.51Z"/><path class="cls-1" d="M43.51,186a21.32,21.32,0,1,1,14.46-37c2.64,2.44,3,5.82,1,8.35s-5.36,2.88-8.32.59-6-3.67-9.71-2.53A9.27,9.27,0,0,0,34,163.33a9,9,0,0,0,4.35,9.51,9.3,9.3,0,0,0,10.48,0c.83-.51,1.55-1.18,2.36-1.72a5.75,5.75,0,0,1,7.14,9A20.83,20.83,0,0,1,43.51,186Z"/><path class="cls-1" d="M73.88,186.06c-1.46,0-2.92.07-4.38,0-3.4-.19-5.65-2.28-5.85-5.34-.21-3.23,1.79-5.7,5.31-6.14,2.31-.28,4.68,0,7-.25,1-.12,2.65-.83,2.85-1.58.48-1.87-1.24-2.09-2.62-2.2a13.56,13.56,0,0,1-10.78-20.3c1.94-3.39,4.8-5.81,8.65-6.35a56.44,56.44,0,0,1,11.33-.37,5.46,5.46,0,0,1,5.25,6.16c-.22,3.07-2.47,5.15-5.89,5.31-2,.1-4.09,0-6.14,0-1.48,0-3.34-.06-3.11,2,.09.78,1.81,1.82,2.9,2,5.66.78,9.59,3.74,11.52,9A13.44,13.44,0,0,1,78,186c-1.36.07-2.72,0-4.09,0Z"/><path class="cls-1" d="M105.16,186a45.94,45.94,0,0,1-5.25,0,5.6,5.6,0,0,1-4.9-5.34,5.35,5.35,0,0,1,4.33-5.75c2.47-.43,5-.16,7.54-.51,1.23-.18,3.2-.91,3.35-1.68.39-2-1.63-1.95-3-2.17-10.32-1.68-15.46-12-10.22-20.58,1.85-3,4.49-5.38,8-5.89a60,60,0,0,1,11.91-.47,5.63,5.63,0,0,1,5.23,6,5.86,5.86,0,0,1-5.8,5.47c-2,.12-4.13-.17-6.13.12-1.21.18-3.18,1-3.29,1.76-.31,2.2,1.74,2,3.26,2.22a13.62,13.62,0,0,1,11.9,11.85,13.36,13.36,0,0,1-8.56,14.15c-2.61.9-5.51.94-8.27,1.37Z"/><path class="cls-1" d="M186.22,21.05q16.36,0,32.73,0a13.78,13.78,0,0,1,3.75.38,5.34,5.34,0,0,1,4.09,5.42,5.34,5.34,0,0,1-4,5.46,13.4,13.4,0,0,1-3.75.4q-32.73,0-65.46,0c-.58,0-1.17,0-1.75,0-3.58-.23-6.12-2.62-6.14-5.79s2.5-5.67,6.07-5.85c2.33-.12,4.67,0,7,0Z"/><path class="cls-1" d="M77.47,32.7a6,6,0,0,1-5.57-6,5.8,5.8,0,1,1,11.6.44A6,6,0,0,1,77.47,32.7Z"/><path class="cls-1" d="M100,21.1A6,6,0,0,1,105.74,27a5.8,5.8,0,0,1-11.6-.12A6,6,0,0,1,100,21.1Z"/><path class="cls-1" d="M122.26,32.7A6,6,0,0,1,116.38,27a5.8,5.8,0,0,1,11.6-.16A6,6,0,0,1,122.26,32.7Z"/></svg>