<svg id="Layer_1" data-name="Layer 1" xmlns="http://www.w3.org/2000/svg" viewBox="0 0 300 300"><defs><style>.cls-1{fill:#131313;}</style></defs><path class="cls-1" d="M0,291.81c1.82-3.26,4.64-4.39,8.28-4.13,2.5.19,5,0,7.84,0v-3.44c0-7.12,0-14.23,0-21.35,0-4.61,1.38-6.3,5.79-7.42,7.73-1.95,15.46-3.93,23.23-5.75a4.65,4.65,0,0,0,3.64-3.19c2.46-6.24,5-12.45,7.73-18.59a4.6,4.6,0,0,0-.45-4.82c-4.13-6.71-8.17-13.49-12.21-20.26-2.47-4.13-2.22-6.19,1.15-9.58q10.22-10.26,20.46-20.47c3.37-3.35,5.49-3.61,9.6-1.16,6.85,4.09,13.72,8.16,20.51,12.37a4.38,4.38,0,0,0,4.56.27c6.25-2.7,12.61-5.15,18.82-7.92a5.52,5.52,0,0,0,2.74-3.2c2.08-7.6,3.91-15.27,5.82-22.91,1.27-5.07,2.93-6.39,8.18-6.4q14,0,28.07,0c5.2,0,6.86,1.34,8.14,6.45,1.88,7.56,3.83,15.09,5.61,22.66a4.39,4.39,0,0,0,2.93,3.54c6.42,2.55,12.75,5.32,19.2,7.8a5.18,5.18,0,0,0,3.92-.28c7-4,13.88-8.27,20.82-12.41,4.08-2.43,6.2-2.15,9.59,1.23q10.16,10.11,20.26,20.26c3.61,3.62,3.83,5.57,1.15,10.06-4.1,6.85-8.28,13.65-12.27,20.56a4.79,4.79,0,0,0-.3,3.67c2.54,6.53,5.36,12.94,7.94,19.45A4.14,4.14,0,0,0,254,249.7c7.85,1.88,15.68,3.85,23.51,5.82,4.28,1.08,5.69,2.79,5.73,7.18.06,7.21,0,14.42,0,21.63v3.39c3.34,0,6.35,0,9.35,0,4,.07,6.69,2.42,6.72,5.8s-2.65,5.76-6.65,5.88c-.49,0-1,0-1.46,0q-141.49,0-283,.05c-3.63,0-6.46-.88-8.28-4.15Zm211.87-4.3h59.72c0-6.74.08-13.26-.1-19.78,0-.77-1.39-1.93-2.32-2.18-7.14-1.9-14.32-3.67-21.52-5.38a8,8,0,0,1-6.18-5.12c-3.59-8.94-7.33-17.81-11-26.7a7,7,0,0,1,.38-6.95c1.86-3,3.62-6,5.42-9,2.58-4.31,5.17-8.62,7.5-12.52l-16.36-16.36c-6.83,4.1-14,8.3-21,12.64a7.71,7.71,0,0,1-7.72.59c-7.23-3.12-14.41-6.48-21.87-8.94-6.49-2.14-9.85-5.87-10.9-12.68-1-6.56-3.13-13-4.74-19.38H138.25c-2,8-4.11,15.88-5.94,23.83a8.16,8.16,0,0,1-5.34,6.32c-8.66,3.48-17.31,7-25.88,10.72a8.35,8.35,0,0,1-8.51-.71c-6.26-3.93-12.63-7.71-19-11.42-.77-.45-2.42-.6-2.93-.12-5.13,4.9-10.1,10-15.21,15.09,4.29,7.14,8.42,14.18,12.73,21.11a8.24,8.24,0,0,1,.65,8.27c-3.62,8.5-7.21,17-10.58,25.62a8.83,8.83,0,0,1-7,5.84c-7.11,1.6-14.18,3.43-21.23,5.29-.83.22-2.09,1.16-2.1,1.79-.16,6.68-.1,13.38-.1,20.2H87.48c-.07-.83-.13-1.49-.19-2.16C85,263,92.16,244.06,109.36,229.47c5.11-4.33,11.49-7.17,17.4-10.5a5.48,5.48,0,0,1,6.54.77,5.57,5.57,0,0,1,1.77,5.82c-.59,2.61-2.69,3.68-4.88,4.6a50.37,50.37,0,0,0-26.81,25.63,49.74,49.74,0,0,0-3.85,31.75H200c2.65-16.49-1-31.07-11.81-43.72a52.84,52.84,0,0,0-19.81-14.08c-3.61-1.54-4.91-4.73-3.61-7.79s4.56-4.39,8.08-2.92c18.84,7.88,31.32,21.57,37.25,41.16C212.82,269.11,213.11,278.19,211.87,287.51Z"/><path class="cls-1" d="M0,107a46.89,46.89,0,0,1,3.57-4.56q31.49-31.58,63-63.08c4.75-4.75,7.27-4.76,12,0Q110.41,71.17,142.24,103a22.59,22.59,0,0,1,1.8,2.24L218.28,31c-1.75-1.54-4-3.35-6.07-5.37-4.81-4.7-9.53-9.49-14.27-14.25-4.47-4.5-4.22-7.66.89-11.39h96.49c3.27,1.82,4.16,4.65,4.15,8.28-.1,29.43-.05,58.85-.05,88.28,0,.48,0,1,0,1.46.06,2.67-.93,4.8-3.4,6s-5,.44-6.94-1.49q-6.68-6.55-13.24-13.21c-2.66-2.7-5.25-5.47-8-8.33-1.07,1-1.85,1.74-2.59,2.48q-27.39,27.39-54.77,54.77c-4.38,4.38-7.63,5-10.48,2.1s-2.18-6,2.1-10.28q27.38-27.39,54.78-54.76a28,28,0,0,1,2.24-1.88L226.6,40.88,153,114.47c3,2.78,6.32,5.62,9.35,8.75a5.74,5.74,0,0,1-6.31,9.31,14.73,14.73,0,0,1-3.64-2.87q-38.58-38.52-77.09-77.1a22.52,22.52,0,0,1-2.06-2.83l-1.32-.22a16.27,16.27,0,0,1-1.9,3Q40.68,81.87,11.32,111.2c-1.86,1.86-3.95,3.71-6.62,2.67-1.8-.7-3.15-2.58-4.7-3.93ZM287.57,11.94H216l71.6,71.61Z"/><path class="cls-1" d="M0,188.89a45.67,45.67,0,0,1,3.55-4.57q38.29-38.38,76.65-76.69a20.51,20.51,0,0,1,2.61-2.33,5.63,5.63,0,0,1,7.47.54,5.52,5.52,0,0,1,.45,7.45c-2.45,2.89-5.24,5.48-7.88,8.22-.59.61-1.15,1.27-2.27,2.51a31.4,31.4,0,0,1,3.34,2.54Q97.51,140,111,153.62a12.14,12.14,0,0,1,2.69,3.41,5.7,5.7,0,0,1-8,7.26,15.4,15.4,0,0,1-3.12-2.6Q88.78,148,75.07,134.2a17.69,17.69,0,0,1-1.83-2.64l-1.36-.2a15.8,15.8,0,0,1-1.89,3Q40.7,163.71,11.32,193c-1.86,1.87-3.94,3.72-6.61,2.69-1.8-.7-3.16-2.57-4.71-3.92Z"/><path class="cls-1" d="M189.66,156.57a6,6,0,0,1-5.82-5.8,5.88,5.88,0,0,1,5.78-5.77,5.74,5.74,0,0,1,5.76,5.74A5.89,5.89,0,0,1,189.66,156.57Z"/><path class="cls-1" d="M155.66,220.45a5.87,5.87,0,0,1-5.72,5.8,6,6,0,0,1-6-5.87,5.93,5.93,0,0,1,5.8-5.76A5.77,5.77,0,0,1,155.66,220.45Z"/></svg>