<svg id="Layer_1" data-name="Layer 1" xmlns="http://www.w3.org/2000/svg" viewBox="0 0 300 300"><defs><style>.cls-1{fill:#131313;}</style></defs><path class="cls-1" d="M0,277.78v-255c4-9.59,11.34-13,21.55-13q128.34.27,256.67.11a29.5,29.5,0,0,1,5.24.27c9.52,1.68,15.37,9.1,15.37,19.42v240.3c0,13.31-7.31,20.66-20.56,20.66H94.69q-38,0-76,0C10.11,290.58,4,286.65.6,278.73A8,8,0,0,0,0,277.78ZM290.06,71H52.19a29.82,29.82,0,0,1-3.79-.13,4.28,4.28,0,0,1-.13-8.46,22.81,22.81,0,0,1,3.79-.17h238V30.52c0-8.46-3.37-11.81-11.9-11.81H20c-.78,0-1.56,0-2.34,0a9.44,9.44,0,0,0-9.45,9.53c-.09,10.82,0,21.64,0,32.45a8.41,8.41,0,0,0,.3,1.54h3.57c6.63,0,13.25,0,19.88,0,3.27,0,5,1.74,5,4.48S35.2,70.92,32,71c-3.89.08-7.79,0-11.69,0H8.19V270.41c0,7.86,3.55,11.41,11.42,11.42h259c7.85,0,11.41-3.57,11.41-11.44V71Z"/><path class="cls-1" d="M166.28,230.78a16.31,16.31,0,0,1-8.33-8.27,3.23,3.23,0,0,0-2.42-1.33c-13.46-.53-17-4-17.55-17.3a3.28,3.28,0,0,0-1.38-2.39,16.7,16.7,0,0,1-7.52-7.48,3.79,3.79,0,0,0-2.91-1.47c-12.47-.1-25-.06-37.42-.07-11.38,0-18.16-6.77-18.22-18.15,0-4.78.09-9.56-.09-14.33a3.92,3.92,0,0,0-1.72-2.78,17.44,17.44,0,0,1-7.09-7.15,4.06,4.06,0,0,0-2.58-1.6c-1.6-.3-3.31,0-4.94-.26-7-1-12-6.08-12.15-13.15q-.33-19.73,0-39.46c.14-7.77,6-13.2,13.86-13.25,12.57-.09,25.14-.07,37.71,0,8.43,0,14.21,5.57,14.34,14,0,3.23.44,5.47,3.75,7.12,2.07,1,3.55,3.5,4.91,5.58.84,1.27,1.45,1.94,3.1,1.92q32-.27,64-.34c1.54,0,2.19-.6,3.14-1.83,2-2.56,4.56-4.61,6.8-7a6.07,6.07,0,0,0,1.7-2.82c.42-2.38.16-4.9.77-7.22A13.39,13.39,0,0,1,208.84,82c13.06-.15,26.12-.2,39.18,0a13.56,13.56,0,0,1,13.4,13.81q.13,19.16,0,38.3A13.59,13.59,0,0,1,247.54,148q-19,.13-38,0c-8.26,0-14.2-5.95-14.1-14.26,0-3.17-.5-5.19-3.64-6.84-2.21-1.16-3.5-4-5.32-6a4,4,0,0,0-2.37-1.48q-32.3,0-64.6.34c-1,0-2,1-2.82,1.76-2.36,2.23-4.42,4.82-7,6.77a3.62,3.62,0,0,0-1.78,3.22,30.21,30.21,0,0,1-.67,6.94c-1.69,6.18-7.16,10-14.21,9.86-2.74,0-4.49.38-6,3.14-1.19,2.24-3.67,3.92-5.86,5.44-1.25.87-2,1.5-1.95,3.12.1,5,0,9.94,0,14.91.1,5.76,3.16,8.74,9,8.75,12.57,0,25.14,0,37.71.05,1.77,0,2.54-.63,3.61-2.06,1.86-2.5,4.45-4.45,6.64-6.73a6.08,6.08,0,0,0,1.72-2.8c.3-1.6,0-3.31.18-5a13.44,13.44,0,0,1,13.22-12.1q19.74-.24,39.47,0c7.58.1,13.15,6,13.28,13.54.07,3.7.06,7.41,0,11.11-.05,2.93-1.84,4.84-4.36,4.83s-4.31-1.94-4.37-4.86c-.08-3.51,0-7,0-10.53s-1.83-5.33-5.21-5.34q-19-.1-38,0c-3.4,0-5.09,1.93-5.33,5.3-.22,3,.2,5.06,3.41,6.94,9.59,5.61,8.78,19.7-1.1,25-2.23,1.19-3,3.8-2.17,7.42a4.59,4.59,0,0,0,4.51,3.86c1.07,0,2.16-.09,3.21,0,2.21.29,3.38-.53,4.48-2.58,2.62-4.89,7.08-7.12,12.56-7.08a13.72,13.72,0,0,1,12.5,7.27c1.31,2.29,3.9,3.15,7.46,2.24a4.64,4.64,0,0,0,3.7-4.94c0-3.41,0-6.82,0-10.23s1.69-5.34,4.46-5.3,4.26,1.86,4.29,5.14c0,3.6.06,7.21,0,10.81a13.42,13.42,0,0,1-13.39,13.41,10.22,10.22,0,0,1-1.75,0c-2.28-.35-3.57.4-4.67,2.65a12.73,12.73,0,0,1-4.75,5.33,14.07,14.07,0,0,0-5.88,6.26c-3,5.77-8.22,8.4-14.66,8.42q-22.22.07-44.44,0a4.42,4.42,0,0,0-4,2.1c-1.71,2.14-4.14,3.69-6.17,5.59a4.83,4.83,0,0,0-1.49,2.39,42.15,42.15,0,0,0-.11,4.37,13.79,13.79,0,0,1-13.68,13q-19.29.26-38.59,0c-8-.11-13.71-6.12-13.76-14.08q-.09-19,0-38A13.54,13.54,0,0,1,50.64,205.2q19.15-.16,38.3,0c8.1.08,13.92,6,13.88,14.2,0,3.1.39,5.15,3.56,6.89,2.41,1.32,3.77,4.49,5.7,6.74.7.81,1.72,1.89,2.61,1.9,14.81.12,29.62.09,44.44.07A7.73,7.73,0,0,0,166.28,230.78Zm62.18-91.53H246c5.06,0,6.69-1.6,6.7-6.57q0-17.66,0-35.33c0-4.94-1.71-6.65-6.69-6.66H211a17,17,0,0,0-1.75,0,5.16,5.16,0,0,0-4.95,4.21c-.87,3.7-.09,5.9,2.39,7.33,5,2.85,7.63,7.16,7.58,12.9s-2.9,10.14-8.08,12.89c-.66.35-1.56.64-1.86,1.21a6.91,6.91,0,0,0,6.08,10C216.39,139.28,222.43,139.25,228.46,139.25ZM69.84,213.93c-5.94,0-11.88,0-17.82,0-4.81,0-6.45,1.68-6.45,6.52q0,17.67,0,35.34c0,5,1.7,6.69,6.65,6.69q17.67,0,35.34,0a9.75,9.75,0,0,0,3.15-.43A4.71,4.71,0,0,0,94,256.82c-.19-1.87,1.34-4.17-1.65-5.51-5.6-2.51-8.38-7.14-8.35-13.25S87,227.51,92.56,224.9A3,3,0,0,0,94,224c2.32-4.18-1-10-5.71-10C82.11,213.88,76,213.93,69.84,213.93ZM75.15,91.08H58.21c-6.38,0-7.59,1.24-7.59,7.74v33c0,1,0,2,.07,2.92A4.91,4.91,0,0,0,55,139.5c4,.79,5.66.18,7-2.4a14.56,14.56,0,0,1,25.1-.83c2.06,3.29,4.23,4.14,8,3.12a4.76,4.76,0,0,0,3.88-4.84c0-2.37,1.23-5-2.37-6.57-5.35-2.31-7.64-7.13-7.66-12.76s2.79-10,7.78-12.8c.75-.42,1.77-.72,2.14-1.37,2.36-4.15-1-9.91-5.71-10C87.22,91,81.19,91.08,75.15,91.08Zm28.35,18.46a5.75,5.75,0,1,0,5.8,5.72A5.89,5.89,0,0,0,103.5,109.54ZM74.73,138.21A5.75,5.75,0,1,0,75,149.7a5.75,5.75,0,1,0-.3-11.49Zm62,49.75a5.68,5.68,0,0,0,11.35.48,5.68,5.68,0,1,0-11.35-.48Zm-32.6,50.22A5.68,5.68,0,0,0,92.8,238a5.68,5.68,0,1,0,11.36.15Zm95.59-128.86a5.6,5.6,0,0,0-5.66,5.78,5.68,5.68,0,1,0,5.66-5.78ZM177.24,217.38a5.89,5.89,0,0,0-5.59-5.95,5.7,5.7,0,0,0-5.77,5.72,5.68,5.68,0,0,0,11.36.23Z"/><path class="cls-1" d="M210.49,36.15q25.84,0,51.7,0c1.16,0,2.64-.2,3.39.41,1.17.94,2.59,2.53,2.54,3.79s-1.4,3-2.63,4c-.83.66-2.41.51-3.66.51q-51.27,0-102.53,0c-.49,0-1,0-1.46,0-3.13-.14-5.13-1.9-5.11-4.46s2-4.29,5.17-4.3Q184.2,36.13,210.49,36.15Z"/><path class="cls-1" d="M53.32,40.34a14.5,14.5,0,0,1-14.5,14.78,14.68,14.68,0,1,1,14.5-14.78Zm-8.78.24a5.88,5.88,0,0,0-5.83-6,6,6,0,0,0-5.94,6,5.83,5.83,0,0,0,5.73,5.81A5.74,5.74,0,0,0,44.54,40.58Z"/><path class="cls-1" d="M108.49,55.13a14.68,14.68,0,0,1,.19-29.36,14.68,14.68,0,1,1-.19,29.36Zm.13-8.8a5.89,5.89,0,0,0,5.9-6,6.09,6.09,0,0,0-5.82-5.82,5.88,5.88,0,0,0-6,5.89A5.75,5.75,0,0,0,108.62,46.33Z"/><path class="cls-1" d="M73.58,55.12a14.68,14.68,0,0,1,.11-29.35,14.68,14.68,0,1,1-.11,29.35Zm-.07-8.79a5.8,5.8,0,0,0,6-5.8,6,6,0,0,0-5.92-6,5.88,5.88,0,0,0-5.83,5.73A5.73,5.73,0,0,0,73.51,46.33Z"/></svg>