<svg id="Layer_1" data-name="Layer 1" xmlns="http://www.w3.org/2000/svg" viewBox="0 0 300 300"><defs><style>.cls-1{fill:#131313;}</style></defs><path class="cls-1" d="M0,42.69c1.75-5.74,4.38-11,10.2-13.46A25,25,0,0,1,19.72,27q130-.18,259.93-.08c11.68,0,19.74,8,19.74,19.65q.08,103.07,0,206.13c0,11.81-8,19.79-19.89,19.8q-100.57,0-201.16,0a12.43,12.43,0,0,1-3.17-.34,5.61,5.61,0,0,1-4.25-5.62c.22-2.64,1.51-4.67,4.21-5.34a17.94,17.94,0,0,1,4.34-.37H278.3c6.88,0,9.42-2.57,9.42-9.52V62c-2.89,0-5.67,0-8.45,0a28.18,28.18,0,0,1-3.79-.1,5.88,5.88,0,0,1-5.25-6A5.82,5.82,0,0,1,276,50.36c3.77-.17,7.56,0,11.62,0a42.27,42.27,0,0,0,0-5.65c-.53-3.81-3.75-6.07-8.37-6.07H21.05c-6.73,0-9.35,2.6-9.35,9.3,0,4.56,0,9.13,0,14,1.1,0,2,.13,3,.13C36.79,62,58.92,62,81,62A5.89,5.89,0,0,0,85.85,60a79,79,0,0,1,7.48-7.39,8.9,8.9,0,0,1,5.12-2.19q68.13-.18,136.25-.08c4.06,0,6.71,2.34,6.78,5.72.08,3.58-2.71,5.95-7.15,5.95q-65.21,0-130.4,0A8.17,8.17,0,0,0,97.6,64.6c-11.12,11-6.32,9-21.66,9.05-20.27.12-40.54,0-60.81,0H11.7v178c0,6.52,2.65,9.17,9.17,9.18,4.78,0,9.56,0,14.33,0,4.32,0,6.93,2.27,6.93,5.83s-2.6,5.81-6.91,5.84c-5.07.05-10.14,0-15.21,0-10.06-.06-16.6-5-19.51-14.77a5.58,5.58,0,0,0-.5-1Z"/><path class="cls-1" d="M191,216.5c-5.34,8-11,10.6-18.78,8.63a14,14,0,0,1-10.83-12.95c-.24-4.37,0-8.77-.25-13.14a3.11,3.11,0,0,0-1.68-2.35c-7.62-2-11.42-5.79-12.47-12.83-1-6.82,1.77-12.34,8.09-16.07a3,3,0,0,0,.48-.44c-.15-.21-.25-.5-.46-.62-6.35-3.78-9.12-9.24-8.11-16.07,1-7,4.84-10.87,12.45-12.83a3.12,3.12,0,0,0,1.7-2.33c.2-4.19,0-8.38.2-12.57.29-7.18,4-12,10.3-13.53,7.58-1.9,14.48.63,18.1,6.64l1.06,1.78c4.19-7.51,10.32-10.35,18.25-8.55,6.66,1.51,11.09,6.56,11.38,13.38.2,4.86,0,9.73,0,14.85,8.59.83,13.73,5.15,14.4,13.81.54,7-2.11,12.34-8.67,15.73a31.5,31.5,0,0,1,3.87,2.63c4.94,4.5,5.77,10.23,4.25,16.35a13.22,13.22,0,0,1-11,10.38c-2.29.42-2.83,1.26-2.76,3.38.13,3.79.11,7.6-.05,11.39-.3,7.36-4.49,12.46-11.35,14.05-7.33,1.7-13.94-1.12-17.41-7.42Zm10.72-83.23h0c0,3,0,6,0,9.06-.08,4.65-2.19,6.81-6.77,6.91-2.53.06-5.07,0-7.6,0-5.16-.06-7.2-2.13-7.23-7.35,0-5.94,0-11.88,0-17.83,0-2.61-1.51-3.56-3.94-3.59s-3.28,1.27-3.19,3.49c0,.88,0,1.76,0,2.63,0,5.17.05,10.33,0,15.5-.07,5-2.21,7.07-7.14,7.15-.88,0-1.76,0-2.63,0-3.34.1-4.58,1.06-4.62,3.58s1.25,3.66,4.75,3.75c1.27,0,2.54,0,3.8.06,3.29.23,5.33,1.88,5.61,5.2a64.67,64.67,0,0,1,0,10.78c-.29,3.41-2.4,5.06-5.88,5.27-1.66.1-3.32,0-5,.12-2.25.12-3.33,1.41-3.31,3.62s1.22,3.4,3.42,3.54c1,.07,1.95.06,2.92.06,6.11,0,8,1.94,8.06,8,0,5.65,0,11.31,0,17,0,2.95,1.86,4.32,4.56,3.69,2.15-.5,2.58-2.09,2.58-4,0-5.85,0-11.69,0-17.54,0-5,2.14-7.05,7.16-7.12,2.25,0,4.49,0,6.73,0,5.77,0,7.7,2,7.71,7.74s-.14,11.31.12,16.95a5.14,5.14,0,0,0,2.27,3.79c2.41,1.21,4.67-.47,4.72-3.26.11-5.55,0-11.11.06-16.66,0-6.77,1.75-8.54,8.4-8.57,1,0,1.95,0,2.92-.1,2.52-.23,3.11-1.92,3.09-4.12s-1.36-3-3.39-3.06c-1.56,0-3.12,0-4.68-.05-3.72-.18-5.91-2-6.2-5.65a63.18,63.18,0,0,1,0-9.92c.3-3.79,2.49-5.59,6.41-5.74,1.46,0,2.93,0,4.39-.07,2.55-.13,3.53-1.61,3.5-4.06s-1.44-3.19-3.58-3.19l-2.63,0c-6.3,0-8.19-1.9-8.21-8.17q0-8.62-.05-17.25c0-2.53-1.57-3.31-3.83-3.35s-3.32,1.14-3.28,3.42C201.79,127,201.75,130.15,201.75,133.27Z"/><path class="cls-1" d="M64.79,167.27c0-9.44-.49-18.92.12-28.32,1-14.77,14.22-28.3,29-29.5a200.17,200.17,0,0,1,26.83-.13c8,.43,12.58,6.4,12.59,14.79,0,8-5,14.44-12.57,15.06-6.68.56-13.42.35-20.14.44-4.61.06-5.56.92-5.57,5.41q0,22.36,0,44.72c0,4.29,1.09,5.33,5.39,5.37,6.33.07,12.67-.09,19,.18,8.3.34,13.32,5.45,13.84,13.64.55,8.53-4,15.67-12.07,16.23-9.94.7-20.2,1.1-29.95-.56C75,221.85,64.57,207.53,64.39,190.36c-.07-7.7,0-15.39,0-23.09Zm11.29,0c0,7.79-.1,15.58,0,23.37.23,13.77,9.77,23.22,23.5,23.37,5.94.07,11.88.05,17.82,0,3.13,0,4.16-1.12,4.22-3.91s-1.77-3.29-4-3.28c-5.84,0-11.69.05-17.53,0-10.37-.12-16.62-6.16-16.71-16.51q-.21-22.94,0-45.87C83.44,134,89.6,128,100,127.93c5.84-.06,11.68,0,17.52-.05,3.12,0,4.13-1.24,4.13-4s-1.89-3.27-4.11-3.27c-6,0-12.08-.14-18.11,0-14,.38-23.21,9.86-23.32,23.86C76,152.07,76.08,159.67,76.08,167.27Z"/><path class="cls-1" d="M252.63,62a5.81,5.81,0,1,1,0-11.62,5.81,5.81,0,0,1,0,11.62Z"/><path class="cls-1" d="M65.64,266.61A5.83,5.83,0,0,1,60,272.48a5.82,5.82,0,1,1-.12-11.63A5.83,5.83,0,0,1,65.64,266.61Z"/><path class="cls-1" d="M32,50.3a6,6,0,0,1-5.82,5.81,5.82,5.82,0,1,1,0-11.63A6,6,0,0,1,32,50.3Z"/><path class="cls-1" d="M49.43,56.11a5.82,5.82,0,0,1,0-11.64,5.82,5.82,0,1,1,0,11.64Z"/><path class="cls-1" d="M72.89,44.47a5.82,5.82,0,1,1-.15,11.64,5.82,5.82,0,0,1,.15-11.64Z"/><path class="cls-1" d="M191,156.57c9.8,0,10.7.89,10.7,10.57,0,10-.83,10.79-10.77,10.79s-10.85-.8-10.85-10.71S181,156.57,191,156.57Z"/></svg>