<svg id="Layer_1" data-name="Layer 1" xmlns="http://www.w3.org/2000/svg" xmlns:xlink="http://www.w3.org/1999/xlink" viewBox="0 0 212.4 168.21"><defs><style>.cls-1{fill:url(#linear-gradient);}.cls-2{fill:#fff;opacity:0.1;}.cls-3{fill:url(#linear-gradient-2);}.cls-4{fill:url(#linear-gradient-3);}.cls-5{opacity:0.26;}.cls-6{fill:#eb5c5c;}.cls-7{fill:url(#linear-gradient-4);}.cls-8{fill:url(#linear-gradient-5);}.cls-9{fill:#723e5e;}.cls-10{fill:url(#linear-gradient-6);}.cls-11{fill:url(#linear-gradient-7);}.cls-12{fill:url(#linear-gradient-8);}.cls-13{fill:url(#linear-gradient-9);}.cls-14{fill:url(#linear-gradient-10);}</style><linearGradient id="linear-gradient" x1="48.29" y1="42.38" x2="84.15" y2="91.73" gradientUnits="userSpaceOnUse"><stop offset="0" stop-color="#12707c"/><stop offset="0.03" stop-color="#15787f"/><stop offset="0.11" stop-color="#1d8e88"/><stop offset="0.21" stop-color="#239f8e"/><stop offset="0.34" stop-color="#28aa93"/><stop offset="0.51" stop-color="#2ab195"/><stop offset="1" stop-color="#2bb396"/></linearGradient><linearGradient id="linear-gradient-2" x1="42.55" y1="39.74" x2="113.12" y2="39.74" gradientUnits="userSpaceOnUse"><stop offset="0" stop-color="#1b9696"/><stop offset="0.02" stop-color="#1e9898"/><stop offset="0.17" stop-color="#31a7a7"/><stop offset="0.34" stop-color="#3eb1b1"/><stop offset="0.57" stop-color="#46b7b7"/><stop offset="1" stop-color="#48b9b9"/></linearGradient><linearGradient id="linear-gradient-3" x1="89.23" y1="49.69" x2="167.2" y2="49.69" gradientUnits="userSpaceOnUse"><stop offset="0" stop-color="#723e5e"/><stop offset="1" stop-color="#706490"/></linearGradient><linearGradient id="linear-gradient-4" x1="122.71" y1="25.94" x2="159.64" y2="59.47" gradientUnits="userSpaceOnUse"><stop offset="0" stop-color="#ec8c4f"/><stop offset="0.1" stop-color="#ee9553"/><stop offset="0.34" stop-color="#f3a55b"/><stop offset="0.62" stop-color="#f5ae60"/><stop offset="1" stop-color="#f6b161"/></linearGradient><linearGradient id="linear-gradient-5" x1="96.81" y1="58.99" x2="96.81" y2="73.34" gradientUnits="userSpaceOnUse"><stop offset="0" stop-color="#ec8c4f"/><stop offset="0.21" stop-color="#f09957"/><stop offset="0.48" stop-color="#f3a15d"/><stop offset="1" stop-color="#f4a35e"/></linearGradient><linearGradient id="linear-gradient-6" x1="111.88" y1="146.89" x2="118.88" y2="146.89" xlink:href="#linear-gradient-5"/><linearGradient id="linear-gradient-7" x1="130.23" y1="146.88" x2="141.09" y2="146.88" xlink:href="#linear-gradient-5"/><linearGradient id="linear-gradient-8" x1="153.42" y1="146.89" x2="160.25" y2="146.89" xlink:href="#linear-gradient-5"/><linearGradient id="linear-gradient-9" x1="170.88" y1="146.89" x2="179.72" y2="146.89" xlink:href="#linear-gradient-5"/><linearGradient id="linear-gradient-10" x1="32.68" y1="151.76" x2="106.38" y2="151.76" xlink:href="#linear-gradient-5"/></defs><title>new logo final</title><path class="cls-1" d="M75.44,44.54s-14.89-2.14-14.79,12c0,0,.06,11.89,14.79,10.89,0,0,21.37-10.89,19,16.83a31.76,31.76,0,0,0-16.2,1.26C69.65,88.68,37.83,86.75,42.55,52,44.74,44.16,53.27,31.08,75.44,44.54Z"/><path class="cls-2" d="M46.53,44.29a21.31,21.31,0,0,0-4,7.75c-4.72,34.71,27.1,36.64,35.68,33.48a26.79,26.79,0,0,1,3.27-1C66.2,83.94,44.23,75.29,46.53,44.29Z"/><path class="cls-3" d="M113.12,37.08s-11.32,2.19-23.89-6.72C89.37,30.5,48.55,15.5,42.55,52c.21,0,12.07-19,32.89-7.5C75.55,44.54,97.93,61.53,113.12,37.08Z"/><path class="cls-2" d="M81,37.25C58.62,24.68,45.88,41.89,45.59,42a37,37,0,0,0-3,10.06c.21,0,12.14-19.07,32.89-7.5.11,0,22.49,17,37.68-7.46l-.45.06C98.55,49,81.07,37.25,81,37.25Z"/><path class="cls-4" d="M112.55,38s-14.75-.11-23.32-7.61a8.24,8.24,0,0,0,6.62-2.91S146.9-6.25,165.76,45c0,.21,4.93,12.64-3.43,31.07.22,0-13.83,13.69-32.69,2.12-.86.21,15.12-2.12,18.12-15.19C148.19,63.18,138.19,20,112.55,38Z"/><path class="cls-5" d="M75.44,67.43s3-1.57,6,2.07c3.19,3.87,5.17,12.2,8.87,14.29,5.94.19,7.78,2,7.78,2l-5.77-5.38-2.09-2.64L89,75.45l-.85-2.11-2-2.71-1-2.57-2-.65-1.87-.67-1.13-1H79Z"/><path class="cls-6" d="M75.44,67.43S82,63.66,85.83,72.72c0,0,9.91,21.21,35.29,24.87,0,0,27.49,4.74,41.21-21.55,0,0-29.35,14.5-44.14-7.86L93,63,80.65,65Z"/><path class="cls-2" d="M125.71,90.45c-25.38-3.66-35.29-24.87-35.3-24.87a19.56,19.56,0,0,0-1.69-1.92L80.65,65l-5.21,2.47s6.64-3.78,10.39,5.28c0,0,9.91,21.22,35.29,24.87,0,0,27.49,4.75,41.21-21.55l-.07,0C147.8,94.25,125.71,90.45,125.71,90.45Z"/><path class="cls-5" d="M146,67.57c1.43.85,7.45,3,19.2.82l.63-2.26-17.66-4.29A25.67,25.67,0,0,1,146,67.57Z"/><path class="cls-5" d="M95.85,27.45s12.52-8.16,26.43,6.32a15.76,15.76,0,0,1,8.11,1c-.24-.75-6.63-7.07-6.63-7.07L116.37,25,110,22.22,99.9,24.82Z"/><path class="cls-7" d="M95.85,27.45S124.4,11.33,139.19,55c1.57,4.63,9.21,17.75,36,10.14-.11-.21-7.61-3.91-12.86-19.78C162.33,45.4,147.06-7.51,95.85,27.45Z"/><path class="cls-2" d="M152.46,51.18c2.77,8.38,6.17,13.36,8.77,16.23a55.88,55.88,0,0,0,13.94-2.3c-.1-.21-7.6-3.91-12.85-19.78,0,.07-15.22-52.66-66.23-18C139.23,5.43,152.46,51.25,152.46,51.18Z"/><path class="cls-8" d="M75.44,67.43s10.07-5.75,24,3.57c.11-.1,9.21,6.9,18.75-2.82C118.19,68.33,103.73,47.93,75.44,67.43Z"/><path class="cls-5" d="M89.23,30.36S96,37.28,112.55,38c0,0,1.77-1.21,2.49-1.58-6.48-1.29-20.14-1.08-25.56-6C89.24,30.38,89.23,30.36,89.23,30.36Z"/><path class="cls-9" d="M35.42,134.27H33.36v-14.2h2.06Z"/><path class="cls-9" d="M50,133.47c0,.54-.26.8-.77.8H47.28a.91.91,0,0,1-.54-.15,1.15,1.15,0,0,1-.35-.48L42,124c-.05-.11-.18-.39-.4-.84a6.33,6.33,0,0,1-.44-1.14h-.29a15.88,15.88,0,0,1,.11,2v10.31H38.88v-13.4a.7.7,0,0,1,.78-.8h1.89a.91.91,0,0,1,.54.15,1.35,1.35,0,0,1,.37.48l4.3,9.43.29.64c.33.66.56,1.16.7,1.49h.31c-.07-.83-.1-1.56-.1-2.21v-10h2Z"/><path class="cls-9" d="M55.77,122.09a1.41,1.41,0,0,0-.3,1v3.07h5.81v1.67l-5.81,0v6.4H53.41V122.68a2.49,2.49,0,0,1,.77-2,3,3,0,0,1,2.09-.7c1.35,0,2.46,0,3.35,0s1.73.07,2.54.15l-.1,1.59H56.79A1.46,1.46,0,0,0,55.77,122.09Z"/><path class="cls-9" d="M66.63,134.27H64.57v-14.2h2.06Z"/><path class="cls-9" d="M81.21,133.47c0,.54-.26.8-.76.8h-2a.86.86,0,0,1-.53-.15,1.07,1.07,0,0,1-.35-.48L73.18,124c-.06-.11-.19-.39-.4-.84a6.47,6.47,0,0,1-.45-1.14h-.28a18.34,18.34,0,0,1,.1,2v10.31H70.09v-13.4a.7.7,0,0,1,.78-.8h1.9a.88.88,0,0,1,.53.15,1.35,1.35,0,0,1,.37.48L78,130.13l.28.64c.33.66.57,1.16.7,1.49h.31c-.07-.83-.1-1.56-.1-2.21v-10h2Z"/><path class="cls-9" d="M86.73,134.27H84.67v-14.2h2.06Z"/><path class="cls-9" d="M100,121.9H95.5v12.37H93.42V121.9H89v-1.83H100Z"/><path class="cls-9" d="M107.42,129.35v4.92h-2.06v-5l-4.69-9.24h2.18l2.86,5.82a7.39,7.39,0,0,1,.38,1c.12.36.2.6.24.69h.14l.23-.68a7.18,7.18,0,0,1,.39-1l2.86-5.84h2.14Z"/><path class="cls-9" d="M120.36,122.09a1.41,1.41,0,0,0-.3,1v3.07h5.81v1.67l-5.81,0v6.4H118V122.68a2.49,2.49,0,0,1,.77-2,3,3,0,0,1,2.09-.7c1.35,0,2.47,0,3.35,0s1.73.07,2.54.15l-.1,1.59h-5.27A1.46,1.46,0,0,0,120.36,122.09Z"/><path class="cls-9" d="M131.18,131.23a1.42,1.42,0,0,0,.29,1,1.37,1.37,0,0,0,1,.3h5l.1,1.59c-1.33.12-3.15.18-5.47.18-2,0-3-.93-3-2.8V120.07h2.06Z"/><path class="cls-9" d="M147.3,130h-5.66l-1.32,4.28h-2.1l4.45-13.65a.76.76,0,0,1,.28-.41.83.83,0,0,1,.48-.14h2.1a.75.75,0,0,1,.47.15.69.69,0,0,1,.27.4l4.47,13.65h-2.12Zm-.55-1.79-1.65-5.4-.35-1.15h-.56l-.33,1.15-1.66,5.4Z"/><path class="cls-9" d="M166.81,120.28a1,1,0,0,1,.24.63l.57,13.36h-2.05l-.5-12.49h-.41l-2.88,10.1a.85.85,0,0,1-.89.7H159.1a.86.86,0,0,1-.91-.7l-2.9-10.1h-.39l-.47,12.49h-2l.53-13.36a1,1,0,0,1,.24-.63.84.84,0,0,1,.61-.21h2.28a.82.82,0,0,1,.56.17,1.05,1.05,0,0,1,.31.53l2.41,8.31c.13.5.29,1.14.47,1.92h.37c.16-.73.33-1.37.5-1.94l2.38-8.29a.89.89,0,0,1,.91-.7h2.24A.84.84,0,0,1,166.81,120.28Z"/><path class="cls-9" d="M179.53,132.56l.1,1.59c-.83.07-1.7.11-2.63.13s-2.08,0-3.47,0a3,3,0,0,1-2.08-.69,2.46,2.46,0,0,1-.78-1.86v-9.18a2.48,2.48,0,0,1,.78-1.87,3,3,0,0,1,2.08-.68c1.39,0,2.55,0,3.47,0s1.8.06,2.63.13l-.1,1.61h-5.65a1.12,1.12,0,0,0-.87.29,1.58,1.58,0,0,0-.26,1V126h6v1.67h-6v3.63a1.58,1.58,0,0,0,.26,1,1.12,1.12,0,0,0,.87.29Z"/><path class="cls-10" d="M118.38,142.58a.23.23,0,0,1-.21.13.5.5,0,0,1-.27-.14,3.3,3.3,0,0,0-.45-.33,3.36,3.36,0,0,0-.71-.34,3.13,3.13,0,0,0-1-.15,3.09,3.09,0,0,0-1.1.18,2.1,2.1,0,0,0-.79.48,2,2,0,0,0-.48.71,2.21,2.21,0,0,0-.17.84,1.67,1.67,0,0,0,.25,1,2.09,2.09,0,0,0,.65.64,4.06,4.06,0,0,0,.91.45l1,.36c.36.12.71.25,1.06.39a3.88,3.88,0,0,1,.91.53,2.34,2.34,0,0,1,.89,2,3.8,3.8,0,0,1-.24,1.35,3.07,3.07,0,0,1-.71,1.09,3.26,3.26,0,0,1-1.15.74,4.11,4.11,0,0,1-1.54.27,4.31,4.31,0,0,1-1.94-.4,4.43,4.43,0,0,1-1.42-1.09l.22-.35a.28.28,0,0,1,.23-.12.33.33,0,0,1,.18.09l.28.24c.1.09.23.2.38.31a2.94,2.94,0,0,0,.53.3,2.84,2.84,0,0,0,.68.24,3.87,3.87,0,0,0,.88.1,3.3,3.3,0,0,0,1.21-.21,2.74,2.74,0,0,0,.9-.56,2.43,2.43,0,0,0,.56-.84,2.75,2.75,0,0,0,.19-1,1.81,1.81,0,0,0-.25-1,2.12,2.12,0,0,0-.65-.65,4.27,4.27,0,0,0-.91-.44l-1-.34c-.36-.12-.71-.24-1.05-.38a3.65,3.65,0,0,1-.92-.54,2.38,2.38,0,0,1-.65-.81,2.73,2.73,0,0,1-.24-1.22,2.77,2.77,0,0,1,.22-1.1,2.68,2.68,0,0,1,.63-.94,3.12,3.12,0,0,1,1-.65,3.84,3.84,0,0,1,1.4-.24,4.23,4.23,0,0,1,1.6.28,3.66,3.66,0,0,1,1.28.86Z"/><path class="cls-11" d="M141.09,146.88a6.79,6.79,0,0,1-.4,2.4,5.19,5.19,0,0,1-1.11,1.83,4.9,4.9,0,0,1-1.71,1.18,6.13,6.13,0,0,1-4.41,0,4.94,4.94,0,0,1-1.72-1.18,5.5,5.5,0,0,1-1.11-1.83,6.79,6.79,0,0,1-.4-2.4,6.68,6.68,0,0,1,.4-2.38,5.55,5.55,0,0,1,1.11-1.84,5.07,5.07,0,0,1,1.72-1.18,6.13,6.13,0,0,1,4.41,0,4.9,4.9,0,0,1,1.71,1.18,5.24,5.24,0,0,1,1.11,1.84A6.68,6.68,0,0,1,141.09,146.88Zm-.86,0a6.28,6.28,0,0,0-.33-2.14,4.62,4.62,0,0,0-.92-1.61,4.12,4.12,0,0,0-1.45-1,4.9,4.9,0,0,0-1.87-.35,4.85,4.85,0,0,0-1.86.35,4.21,4.21,0,0,0-1.45,1,4.65,4.65,0,0,0-.94,1.61,7.14,7.14,0,0,0,0,4.29,4.61,4.61,0,0,0,.94,1.6,4.08,4.08,0,0,0,1.45,1,4.85,4.85,0,0,0,1.86.35,4.9,4.9,0,0,0,1.87-.35,4,4,0,0,0,1.45-1,4.57,4.57,0,0,0,.92-1.6A6.27,6.27,0,0,0,140.23,146.88Z"/><path class="cls-12" d="M160.25,141.19v.69h-6v4.79h5.19v.68h-5.19v5.23h-.83V141.19Z"/><path class="cls-13" d="M179.72,141.19v.7h-4v10.69h-.82V141.89h-4v-.7Z"/><path class="cls-14" d="M106.13,152H32.93a.25.25,0,0,1,0-.5h73.2a.25.25,0,0,1,0,.5Z"/></svg>